<svg height="144" viewBox="0 0 48 48" width="144" xmlns="http://www.w3.org/2000/svg" xmlns:xlink="http://www.w3.org/1999/xlink"><linearGradient id="a" gradientUnits="userSpaceOnUse" x1="5.263" x2="14.066" y1="26.905" y2="26.905"><stop offset="0" stop-color="#f09701"/><stop offset="1" stop-color="#e36001"/></linearGradient><linearGradient id="b" gradientUnits="userSpaceOnUse" x1="42.278" x2="28.135" y1="45.336" y2="20.84"><stop offset="0" stop-color="#2aa4f4"/><stop offset="1" stop-color="#007ad9"/></linearGradient><linearGradient id="c" gradientUnits="userSpaceOnUse" x1="38.47" x2="29.705" y1="7.051" y2="22.233"><stop offset=".002" stop-color="#427fdb"/><stop offset=".397" stop-color="#2668cb"/><stop offset=".763" stop-color="#1358bf"/><stop offset="1" stop-color="#0c52bb"/></linearGradient><linearGradient id="d" gradientUnits="userSpaceOnUse" x1="17.232" x2="7.318" y1="30.969" y2="40.688"><stop offset="0" stop-color="#ac4ad5"/><stop offset="1" stop-color="#ae4cd5"/></linearGradient><linearGradient id="e" gradientUnits="userSpaceOnUse" x1="13.39" x2="19.955" y1="3.355" y2="21.39"><stop offset=".002" stop-color="#f44f78"/><stop offset=".397" stop-color="#e4305d"/><stop offset=".763" stop-color="#d81b4a"/><stop offset="1" stop-color="#d41343"/></linearGradient><path d="m23.06 24-8.94 11.19-3.12-2.46-.5-.39-.16-.13-.34-.27-5.56-4.38 4.81-8.94.75.29.5.2.5.19 7.21 2.81z" fill="url(#a)"/><path d="m44 14.688-.75 23.125-15.375 6.187-9.25-6 13.5-14z" fill="url(#b)"/><path d="m44 14.69-7 8.25-.5.59-.5.59-4.19 4.94-2.65-8.6-2.91-9.46.42-.5.01-.02.4-.48 4.48-5.38z" fill="url(#c)"/><path d="m34.69 19.62-10.67 16.38-.32.5-.33.5-.12.19-16 5.81 2.56-9 .19-.64.34-1.15.16-.53.5-1.68 2.12-7.12 5.09-.77z" fill="url(#d)"/><path d="m34.69 19.62-5.53.84-16.04 2.42-2.12-.71-.5-.17-.5-.17-6-2.02 5.81-15.81 12.5 1.5 3.95 4.5.42.48.01.02.44.5z" fill="url(#e)"/><path d="m11 11h25v25h-25z" fill="#343434"/><path d="m14 31.5h9v1.5h-9zm6.5-15.625v-1.875h-5v1.875h1.5v6.5h-1.5v1.875h5v-1.875h-1.341v-6.5zm4.875 8.625c-1.875 0-2.871-1.098-3.25-1.548l1.411-1.605c.255.282.964 1.028 1.839 1.028 1.125 0 1.375-1.125 1.375-1.75v-6.625h2.25v6.625c0 .624 0 1.625-.75 2.625-.525.7-1.75 1.25-2.875 1.25z" fill="#fff"/><path d="m27.08 10-.4.48-.42-.48h-16.26v21.94l.34.27-.34 1.15v3.64h27v-27zm8.92 26h-25v-25h25z" opacity=".05"/><path d="m10.5 10.5v26h26v-26zm25.5 25.5h-25v-25h25z" opacity=".07"/></svg>